<svg width="41" height="41" viewBox="0 0 41 41" fill="none" xmlns="http://www.w3.org/2000/svg">
<path d="M14.375 32.75H13.5C6.5 32.75 3 31 3 22.25V13.5C3 6.5 6.5 3 13.5 3H27.5C34.5 3 38 6.5 38 13.5V22.25C38 29.25 34.5 32.75 27.5 32.75H26.625C26.0825 32.75 25.5575 33.0125 25.225 33.45L22.6 36.95C21.445 38.49 19.555 38.49 18.4 36.95L15.775 33.45C15.495 33.065 14.8475 32.75 14.375 32.75Z" stroke="white" stroke-width="5.38438" stroke-miterlimit="10" stroke-linecap="round" stroke-linejoin="round"/>
<path d="M27.4939 18.749H27.5095" stroke="white" stroke-width="7.17917" stroke-linecap="round" stroke-linejoin="round"/>
<path d="M20.4922 18.749H20.508" stroke="white" stroke-width="7.17917" stroke-linecap="round" stroke-linejoin="round"/>
<path d="M13.4905 18.749H13.5063" stroke="white" stroke-width="7.17917" stroke-linecap="round" stroke-linejoin="round"/>
</svg>
