<svg width="35" height="35" viewBox="0 0 35 35" fill="none" xmlns="http://www.w3.org/2000/svg">
<path d="M12.295 0C7.71873 0 3.99835 3.72038 3.99835 8.29663C3.99835 12.7855 7.50914 16.4186 12.0854 16.5758C12.2251 16.5583 12.3648 16.5583 12.4696 16.5758H12.557H12.5919C17.0634 16.4186 20.5741 12.7855 20.5916 8.29663C20.5916 3.72038 16.8712 0 12.295 0Z" fill="white"/>
<path d="M21.1694 21.2208C16.2962 17.972 8.34903 17.972 3.44092 21.2208C1.22266 22.7054 0 24.7141 0 26.8625C0 29.0109 1.22266 31.0021 3.42345 32.4692C5.86877 34.1111 9.08262 34.932 12.2965 34.932C15.5103 34.932 18.7241 34.1111 21.1694 32.4692C23.3702 30.9846 24.5929 28.9934 24.5929 26.8275C24.5754 24.6792 23.3702 22.688 21.1694 21.2208Z" fill="white"/>
<path d="M31.4895 9.32395C31.7689 12.7125 29.3585 15.6817 26.0224 16.0834C26.005 16.0834 26.005 16.0834 25.9875 16.0834H25.9351C25.8303 16.0834 25.7255 16.0834 25.6382 16.1184C23.9439 16.2057 22.3894 15.6642 21.2191 14.6686C23.0182 13.0618 24.0487 10.6514 23.8391 8.03142C23.7168 6.61663 23.2278 5.3241 22.4942 4.22371C23.1579 3.89184 23.9264 3.68224 24.7124 3.61238C28.1359 3.31544 31.1925 5.86556 31.4895 9.32395Z" fill="white"/>
<path d="M34.9811 25.4844C34.8414 27.1786 33.7585 28.6458 31.942 29.6414C30.1953 30.6021 27.9945 31.0562 25.8112 31.0038C27.0688 29.8685 27.8024 28.4537 27.9421 26.9516C28.1168 24.7857 27.0862 22.7072 25.0252 21.0479C23.8549 20.1221 22.4925 19.3885 21.0079 18.8471C24.868 17.7292 29.7237 18.4803 32.7105 20.8907C34.3174 22.1832 35.1383 23.8076 34.9811 25.4844Z" fill="white"/>
</svg>
