<svg width="41" height="45" viewBox="0 0 41 45" fill="none" xmlns="http://www.w3.org/2000/svg">
<path d="M38 12.7222V32.1667C38 38 35.0833 41.8889 28.2778 41.8889H12.7222C5.91667 41.8889 3 38 3 32.1667V12.7222C3 6.88889 5.91667 3 12.7222 3H28.2778C35.0833 3 38 6.88889 38 12.7222Z" stroke="white" stroke-width="5.98265" stroke-miterlimit="10" stroke-linecap="round" stroke-linejoin="round"/>
<path d="M27.3055 3V18.2833C27.3055 19.1389 26.2944 19.5667 25.6722 19.0028L21.1611 14.8417C20.7916 14.4917 20.2083 14.4917 19.8388 14.8417L15.3278 19.0028C14.7056 19.5667 13.6944 19.1389 13.6944 18.2833V3H27.3055Z" stroke="white" stroke-width="5.98265" stroke-miterlimit="10" stroke-linecap="round" stroke-linejoin="round"/>
<path d="M22.9305 26.333H31.1944" stroke="white" stroke-width="5.98265" stroke-miterlimit="10" stroke-linecap="round" stroke-linejoin="round"/>
<path d="M14.6667 34.1113H31.1945" stroke="white" stroke-width="5.98265" stroke-miterlimit="10" stroke-linecap="round" stroke-linejoin="round"/>
</svg>
