<svg width="44" height="32" viewBox="0 0 44 32" fill="none" xmlns="http://www.w3.org/2000/svg">
<path d="M25 19C23.3333 19 21.9167 18.4167 20.75 17.25C19.5833 16.0833 19 14.6667 19 13C19 11.3333 19.5833 9.91667 20.75 8.75C21.9167 7.58333 23.3333 7 25 7C26.6667 7 28.0833 7.58333 29.25 8.75C30.4167 9.91667 31 11.3333 31 13C31 14.6667 30.4167 16.0833 29.25 17.25C28.0833 18.4167 26.6667 19 25 19ZM9 26C8.175 26 7.46875 25.7063 6.88125 25.1188C6.29375 24.5313 6 23.825 6 23V3C6 2.175 6.29375 1.46875 6.88125 0.88125C7.46875 0.29375 8.175 0 9 0H41C41.825 0 42.5313 0.29375 43.1188 0.88125C43.7063 1.46875 44 2.175 44 3V23C44 23.825 43.7063 24.5313 43.1188 25.1188C42.5313 25.7063 41.825 26 41 26H9ZM14 23H36C36 21.6 36.4833 20.4167 37.45 19.45C38.4167 18.4833 39.6 18 41 18V8C39.6 8 38.4167 7.51667 37.45 6.55C36.4833 5.58333 36 4.4 36 3H14C14 4.4 13.5167 5.58333 12.55 6.55C11.5833 7.51667 10.4 8 9 8V18C10.4 18 11.5833 18.4833 12.55 19.45C13.5167 20.4167 14 21.6 14 23ZM38 32H3C2.175 32 1.46875 31.7063 0.88125 31.1188C0.29375 30.5313 0 29.825 0 29V6H3V29H38V32Z" fill="white"/>
</svg>
