<svg width="40" height="32" viewBox="0 0 40 32" fill="none" xmlns="http://www.w3.org/2000/svg">
<path d="M3.27576 11H36.6258L34.3758 3H5.62576L3.27576 11ZM30.5758 14H9.42576L8.72576 19H31.2258L30.5758 14ZM3.97576 32L6.42576 14H1.97576C1.30909 14 0.784091 13.7333 0.400758 13.2C0.0174242 12.6667 -0.0909091 12.0833 0.0757576 11.45L2.92576 1.45C3.05909 1.01667 3.29242 0.666667 3.62576 0.4C3.95909 0.133333 4.35909 0 4.82576 0H35.1258C35.5924 0 35.9924 0.133333 36.3258 0.4C36.6591 0.666667 36.8924 1.01667 37.0258 1.45L39.8758 11.45C40.0424 12.0833 39.9341 12.6667 39.5508 13.2C39.1674 13.7333 38.6424 14 37.9758 14H33.5758L35.9758 32H32.9758L31.6258 22H8.32576L6.97576 32H3.97576Z" fill="white"/>
</svg>
