<svg width="30" height="28" viewBox="0 0 30 28" fill="none" xmlns="http://www.w3.org/2000/svg">
<path d="M15 0C6.735 0 0 6.27052 0 13.9655C0 21.6605 6.735 27.931 15 27.931C23.265 27.931 30 21.6605 30 13.9655C30 6.27052 23.265 0 15 0ZM22.17 10.7534L13.665 18.6719C13.455 18.8674 13.17 18.9791 12.87 18.9791C12.57 18.9791 12.285 18.8674 12.075 18.6719L7.83 14.7197C7.395 14.3147 7.395 13.6443 7.83 13.2393C8.265 12.8343 8.985 12.8343 9.42 13.2393L12.87 16.4514L20.58 9.2731C21.015 8.8681 21.735 8.8681 22.17 9.2731C22.605 9.6781 22.605 10.3345 22.17 10.7534Z" fill="#00AC26"/>
</svg>
