<svg width="160" height="56" viewBox="0 0 160 56" fill="none" xmlns="http://www.w3.org/2000/svg">
<line x1="28" y1="55.85" x2="160" y2="55.85" stroke="#F4F4F8" stroke-width="0.3"/>
<path d="M30.5852 18V4.90909H38.4347V6.31534H32.1705V10.7386H37.8466V12.1449H32.1705V18H30.5852ZM44.3409 18.2045C43.3949 18.2045 42.5788 17.9957 41.8928 17.5781C41.2109 17.1562 40.6847 16.5682 40.3139 15.8139C39.9474 15.0554 39.7642 14.1733 39.7642 13.1676C39.7642 12.1619 39.9474 11.2756 40.3139 10.5085C40.6847 9.73722 41.2003 9.13636 41.8608 8.70597C42.5256 8.27131 43.3011 8.05398 44.1875 8.05398C44.6989 8.05398 45.2038 8.1392 45.7024 8.30966C46.201 8.48011 46.6548 8.7571 47.0639 9.14062C47.473 9.51989 47.799 10.0227 48.0419 10.6491C48.2848 11.2756 48.4062 12.0469 48.4062 12.9631V13.6023H40.8381V12.2983H46.8722C46.8722 11.7443 46.7614 11.25 46.5398 10.8153C46.3224 10.3807 46.0114 10.0376 45.6065 9.78622C45.206 9.5348 44.733 9.40909 44.1875 9.40909C43.5866 9.40909 43.0668 9.55824 42.6278 9.85653C42.1932 10.1506 41.8587 10.5341 41.6243 11.0071C41.3899 11.4801 41.2727 11.9872 41.2727 12.5284V13.3977C41.2727 14.1392 41.4006 14.7678 41.6562 15.2834C41.9162 15.7947 42.2763 16.1847 42.7365 16.4531C43.1967 16.7173 43.7315 16.8494 44.3409 16.8494C44.7372 16.8494 45.0952 16.794 45.4148 16.6832C45.7386 16.5682 46.0178 16.3977 46.2521 16.1719C46.4865 15.9418 46.6676 15.6562 46.7955 15.3153L48.2528 15.7244C48.0994 16.2188 47.8416 16.6534 47.4794 17.0284C47.1172 17.3991 46.6697 17.6889 46.1371 17.8977C45.6044 18.1023 45.0057 18.2045 44.3409 18.2045ZM54.8175 18.2045C53.8714 18.2045 53.0554 17.9957 52.3693 17.5781C51.6875 17.1562 51.1612 16.5682 50.7905 15.8139C50.424 15.0554 50.2408 14.1733 50.2408 13.1676C50.2408 12.1619 50.424 11.2756 50.7905 10.5085C51.1612 9.73722 51.6768 9.13636 52.3374 8.70597C53.0021 8.27131 53.7777 8.05398 54.6641 8.05398C55.1754 8.05398 55.6804 8.1392 56.179 8.30966C56.6776 8.48011 57.1314 8.7571 57.5405 9.14062C57.9496 9.51989 58.2756 10.0227 58.5185 10.6491C58.7614 11.2756 58.8828 12.0469 58.8828 12.9631V13.6023H51.3146V12.2983H57.3487C57.3487 11.7443 57.2379 11.25 57.0163 10.8153C56.799 10.3807 56.4879 10.0376 56.0831 9.78622C55.6825 9.5348 55.2095 9.40909 54.6641 9.40909C54.0632 9.40909 53.5433 9.55824 53.1044 9.85653C52.6697 10.1506 52.3352 10.5341 52.1009 11.0071C51.8665 11.4801 51.7493 11.9872 51.7493 12.5284V13.3977C51.7493 14.1392 51.8771 14.7678 52.1328 15.2834C52.3928 15.7947 52.7528 16.1847 53.2131 16.4531C53.6733 16.7173 54.2081 16.8494 54.8175 16.8494C55.2138 16.8494 55.5717 16.794 55.8913 16.6832C56.2152 16.5682 56.4943 16.3977 56.7287 16.1719C56.9631 15.9418 57.1442 15.6562 57.272 15.3153L58.7294 15.7244C58.576 16.2188 58.3182 16.6534 57.956 17.0284C57.5938 17.3991 57.1463 17.6889 56.6136 17.8977C56.081 18.1023 55.4822 18.2045 54.8175 18.2045ZM64.8849 18.2045C64.0668 18.2045 63.3445 17.9979 62.718 17.5845C62.0916 17.1669 61.6016 16.5788 61.2479 15.8203C60.8942 15.0575 60.7173 14.1562 60.7173 13.1165C60.7173 12.0852 60.8942 11.1903 61.2479 10.4318C61.6016 9.6733 62.0938 9.08736 62.7244 8.67401C63.3551 8.26065 64.0838 8.05398 64.9105 8.05398C65.5497 8.05398 66.0547 8.16051 66.4254 8.37358C66.8004 8.58239 67.0859 8.82102 67.282 9.08949C67.4822 9.35369 67.6378 9.57102 67.7486 9.74148H67.8764V4.90909H69.3849V18H67.9276V16.4915H67.7486C67.6378 16.6705 67.4801 16.8963 67.2756 17.169C67.071 17.4375 66.7791 17.6783 66.3999 17.8913C66.0206 18.1001 65.5156 18.2045 64.8849 18.2045ZM65.0895 16.8494C65.6946 16.8494 66.206 16.6918 66.6236 16.3764C67.0412 16.0568 67.3587 15.6158 67.576 15.0533C67.7933 14.4865 67.902 13.8324 67.902 13.0909C67.902 12.358 67.7955 11.7166 67.5824 11.1669C67.3693 10.6129 67.054 10.1825 66.6364 9.87571C66.2188 9.56463 65.7031 9.40909 65.0895 9.40909C64.4503 9.40909 63.9176 9.57315 63.4915 9.90128C63.0696 10.2251 62.7521 10.6662 62.5391 11.2244C62.3303 11.7784 62.2259 12.4006 62.2259 13.0909C62.2259 13.7898 62.3324 14.4247 62.5455 14.9957C62.7628 15.5625 63.0824 16.0142 63.5043 16.3509C63.9304 16.6832 64.4588 16.8494 65.0895 16.8494ZM72.5618 18V4.90909H74.0703V9.74148H74.1982C74.3089 9.57102 74.4624 9.35369 74.6584 9.08949C74.8587 8.82102 75.1442 8.58239 75.5149 8.37358C75.8899 8.16051 76.397 8.05398 77.0362 8.05398C77.8629 8.05398 78.5916 8.26065 79.2223 8.67401C79.853 9.08736 80.3452 9.6733 80.6989 10.4318C81.0526 11.1903 81.2294 12.0852 81.2294 13.1165C81.2294 14.1562 81.0526 15.0575 80.6989 15.8203C80.3452 16.5788 79.8551 17.1669 79.2287 17.5845C78.6023 17.9979 77.88 18.2045 77.0618 18.2045C76.4311 18.2045 75.9261 18.1001 75.5469 17.8913C75.1676 17.6783 74.8757 17.4375 74.6712 17.169C74.4666 16.8963 74.3089 16.6705 74.1982 16.4915H74.0192V18H72.5618ZM74.0447 13.0909C74.0447 13.8324 74.1534 14.4865 74.3707 15.0533C74.5881 15.6158 74.9055 16.0568 75.3232 16.3764C75.7408 16.6918 76.2521 16.8494 76.8572 16.8494C77.4879 16.8494 78.0142 16.6832 78.4361 16.3509C78.8622 16.0142 79.1818 15.5625 79.3949 14.9957C79.6122 14.4247 79.7209 13.7898 79.7209 13.0909C79.7209 12.4006 79.6143 11.7784 79.4013 11.2244C79.1925 10.6662 78.875 10.2251 78.4489 9.90128C78.027 9.57315 77.4964 9.40909 76.8572 9.40909C76.2436 9.40909 75.728 9.56463 75.3104 9.87571C74.8928 10.1825 74.5774 10.6129 74.3643 11.1669C74.1513 11.7166 74.0447 12.358 74.0447 13.0909ZM86.4261 18.2301C85.804 18.2301 85.2393 18.1129 84.7322 17.8786C84.2251 17.6399 83.8224 17.2969 83.5241 16.8494C83.2259 16.3977 83.0767 15.8523 83.0767 15.2131C83.0767 14.6506 83.1875 14.1946 83.4091 13.8452C83.6307 13.4915 83.9268 13.2145 84.2976 13.0142C84.6683 12.8139 85.0774 12.6648 85.5249 12.5668C85.9766 12.4645 86.4304 12.3835 86.8864 12.3239C87.483 12.2472 87.9666 12.1896 88.3374 12.1513C88.7124 12.1087 88.9851 12.0384 89.1555 11.9403C89.3303 11.8423 89.4176 11.6719 89.4176 11.429V11.3778C89.4176 10.7472 89.245 10.2571 88.8999 9.90767C88.5589 9.55824 88.0412 9.38352 87.3466 9.38352C86.6264 9.38352 86.0618 9.54119 85.6527 9.85653C85.2436 10.1719 84.956 10.5085 84.7898 10.8665L83.358 10.3551C83.6136 9.75852 83.9545 9.29403 84.3807 8.96165C84.8111 8.625 85.2798 8.39062 85.7869 8.25852C86.2983 8.12216 86.8011 8.05398 87.2955 8.05398C87.6108 8.05398 87.973 8.09233 88.3821 8.16903C88.7955 8.24148 89.1939 8.39276 89.5774 8.62287C89.9652 8.85298 90.2869 9.20028 90.5426 9.66477C90.7983 10.1293 90.9261 10.7514 90.9261 11.5312V18H89.4176V16.6705H89.3409C89.2386 16.8835 89.0682 17.1115 88.8295 17.3544C88.5909 17.5973 88.2734 17.804 87.8771 17.9744C87.4808 18.1449 86.9972 18.2301 86.4261 18.2301ZM86.6562 16.875C87.2528 16.875 87.7557 16.7578 88.1648 16.5234C88.5781 16.2891 88.8892 15.9865 89.098 15.6158C89.3111 15.245 89.4176 14.8551 89.4176 14.446V13.0653C89.3537 13.142 89.2131 13.2124 88.9957 13.2763C88.7827 13.3359 88.5355 13.3892 88.2543 13.4361C87.9773 13.4787 87.7067 13.517 87.4425 13.5511C87.1825 13.581 86.9716 13.6065 86.8097 13.6278C86.4176 13.679 86.0511 13.7621 85.7102 13.8771C85.3736 13.9879 85.1009 14.1562 84.892 14.3821C84.6875 14.6037 84.5852 14.9062 84.5852 15.2898C84.5852 15.8139 84.7791 16.2102 85.1669 16.4787C85.5589 16.7429 86.0554 16.875 86.6562 16.875ZM97.6681 18.2045C96.7477 18.2045 95.9551 17.9872 95.2903 17.5526C94.6255 17.1179 94.1142 16.5192 93.7562 15.7564C93.3983 14.9936 93.2193 14.1222 93.2193 13.142C93.2193 12.1449 93.4025 11.2649 93.769 10.5021C94.1397 9.73509 94.6554 9.13636 95.3159 8.70597C95.9806 8.27131 96.7562 8.05398 97.6426 8.05398C98.3329 8.05398 98.9551 8.18182 99.5091 8.4375C100.063 8.69318 100.517 9.05114 100.871 9.51136C101.224 9.97159 101.444 10.5085 101.529 11.1222H100.02C99.9054 10.6747 99.6497 10.2784 99.2534 9.93324C98.8613 9.58381 98.3329 9.40909 97.6681 9.40909C97.0801 9.40909 96.5645 9.5625 96.1213 9.86932C95.6824 10.1719 95.3393 10.6001 95.0922 11.1541C94.8493 11.7038 94.7278 12.3494 94.7278 13.0909C94.7278 13.8494 94.8471 14.5099 95.0858 15.0724C95.3287 15.6349 95.6696 16.0717 96.1085 16.3828C96.5517 16.6939 97.0716 16.8494 97.6681 16.8494C98.0602 16.8494 98.416 16.7812 98.7356 16.6449C99.0552 16.5085 99.3258 16.3125 99.5474 16.0568C99.769 15.8011 99.9267 15.4943 100.02 15.1364H101.529C101.444 15.7159 101.233 16.2379 100.896 16.7024C100.564 17.1626 100.123 17.5291 99.573 17.8018C99.0275 18.0703 98.3926 18.2045 97.6681 18.2045ZM105.14 14.4205L105.115 12.554H105.422L109.717 8.18182H111.584L107.007 12.8097H106.879L105.14 14.4205ZM103.734 18V4.90909H105.243V18H103.734ZM109.973 18L106.138 13.142L107.211 12.0938L111.89 18H109.973Z" fill="white"/>
<path d="M13 4V11H3.17L2.58 11.59L2 12.17V4H13ZM14 2H1C0.45 2 0 2.45 0 3V17L4 13H14C14.55 13 15 12.55 15 12V3C15 2.45 14.55 2 14 2ZM19 6H17V15H4V17C4 17.55 4.45 18 5 18H16L20 22V7C20 6.45 19.55 6 19 6Z" fill="white"/>
</svg>
