<svg width="165" height="54" viewBox="0 0 165 54" fill="none" xmlns="http://www.w3.org/2000/svg">
<line x1="33" y1="53.85" x2="165" y2="53.85" stroke="#F4F4F8" stroke-width="0.3"/>
<path d="M39.5852 21V7.90909H41.1705V13.7386H48.1506V7.90909H49.7358V21H48.1506V15.1449H41.1705V21H39.5852ZM52.7049 21V11.1818H54.2134V21H52.7049ZM53.4719 9.54545C53.1779 9.54545 52.9244 9.44531 52.7113 9.24503C52.5025 9.04474 52.3981 8.80398 52.3981 8.52273C52.3981 8.24148 52.5025 8.00071 52.7113 7.80043C52.9244 7.60014 53.1779 7.5 53.4719 7.5C53.766 7.5 54.0174 7.60014 54.2262 7.80043C54.4393 8.00071 54.5458 8.24148 54.5458 8.52273C54.5458 8.80398 54.4393 9.04474 54.2262 9.24503C54.0174 9.44531 53.766 9.54545 53.4719 9.54545ZM63.9309 13.3807L62.5758 13.7642C62.4906 13.5384 62.3649 13.3189 62.1987 13.1058C62.0368 12.8885 61.8152 12.7095 61.5339 12.5689C61.2527 12.4283 60.8926 12.358 60.4537 12.358C59.8528 12.358 59.3521 12.4964 58.9515 12.7734C58.5552 13.0462 58.3571 13.3935 58.3571 13.8153C58.3571 14.1903 58.4934 14.4865 58.7662 14.7038C59.0389 14.9212 59.465 15.1023 60.0446 15.2472L61.502 15.6051C62.3798 15.8182 63.0339 16.1442 63.4643 16.5831C63.8947 17.0178 64.1099 17.5781 64.1099 18.2642C64.1099 18.8267 63.948 19.3295 63.6241 19.7727C63.3045 20.2159 62.8571 20.5653 62.2818 20.821C61.7065 21.0767 61.0375 21.2045 60.2747 21.2045C59.2733 21.2045 58.4444 20.9872 57.7882 20.5526C57.1319 20.1179 56.7164 19.483 56.5417 18.6477L57.9735 18.2898C58.1099 18.8182 58.3677 19.2145 58.747 19.4787C59.1305 19.7429 59.6312 19.875 60.2491 19.875C60.9522 19.875 61.5105 19.7259 61.9238 19.4276C62.3414 19.125 62.5502 18.7628 62.5502 18.3409C62.5502 18 62.4309 17.7145 62.1923 17.4844C61.9537 17.25 61.5872 17.0753 61.0929 16.9602L59.4565 16.5767C58.5574 16.3636 57.8968 16.0334 57.475 15.5859C57.0574 15.1342 56.8485 14.5696 56.8485 13.892C56.8485 13.3381 57.0041 12.848 57.3152 12.4219C57.6305 11.9957 58.0588 11.6612 58.6 11.4183C59.1454 11.1754 59.7633 11.054 60.4537 11.054C61.4252 11.054 62.188 11.267 62.742 11.6932C63.3002 12.1193 63.6966 12.6818 63.9309 13.3807ZM70.6506 11.1818V12.4602H65.5625V11.1818H70.6506ZM67.0455 8.82955H68.554V18.1875C68.554 18.6136 68.6158 18.9332 68.7393 19.1463C68.8672 19.3551 69.0291 19.4957 69.2251 19.5682C69.4254 19.6364 69.6364 19.6705 69.858 19.6705C70.0241 19.6705 70.1605 19.6619 70.267 19.6449C70.3736 19.6236 70.4588 19.6065 70.5227 19.5938L70.8295 20.9489C70.7273 20.9872 70.5845 21.0256 70.4013 21.0639C70.218 21.1065 69.9858 21.1278 69.7045 21.1278C69.2784 21.1278 68.8608 21.0362 68.4517 20.853C68.0469 20.6697 67.7102 20.3906 67.4418 20.0156C67.1776 19.6406 67.0455 19.1676 67.0455 18.5966V8.82955ZM76.8029 21.2045C75.9165 21.2045 75.1388 20.9936 74.4698 20.5717C73.805 20.1499 73.2852 19.5597 72.9102 18.8011C72.5394 18.0426 72.354 17.1562 72.354 16.142C72.354 15.1193 72.5394 14.2266 72.9102 13.4638C73.2852 12.701 73.805 12.1087 74.4698 11.6868C75.1388 11.2649 75.9165 11.054 76.8029 11.054C77.6893 11.054 78.4648 11.2649 79.1296 11.6868C79.7987 12.1087 80.3185 12.701 80.6893 13.4638C81.0643 14.2266 81.2518 15.1193 81.2518 16.142C81.2518 17.1562 81.0643 18.0426 80.6893 18.8011C80.3185 19.5597 79.7987 20.1499 79.1296 20.5717C78.4648 20.9936 77.6893 21.2045 76.8029 21.2045ZM76.8029 19.8494C77.4762 19.8494 78.0302 19.6768 78.4648 19.3317C78.8995 18.9865 79.2212 18.5327 79.43 17.9702C79.6388 17.4077 79.7433 16.7983 79.7433 16.142C79.7433 15.4858 79.6388 14.8743 79.43 14.3075C79.2212 13.7408 78.8995 13.2827 78.4648 12.9332C78.0302 12.5838 77.4762 12.4091 76.8029 12.4091C76.1296 12.4091 75.5756 12.5838 75.141 12.9332C74.7063 13.2827 74.3846 13.7408 74.1758 14.3075C73.967 14.8743 73.8626 15.4858 73.8626 16.142C73.8626 16.7983 73.967 17.4077 74.1758 17.9702C74.3846 18.5327 74.7063 18.9865 75.141 19.3317C75.5756 19.6768 76.1296 19.8494 76.8029 19.8494ZM83.5545 21V11.1818H85.0119V12.6648H85.1142C85.2931 12.179 85.617 11.7848 86.0858 11.4822C86.5545 11.1797 87.0829 11.0284 87.671 11.0284C87.7818 11.0284 87.9203 11.0305 88.0865 11.0348C88.2527 11.0391 88.3784 11.0455 88.4636 11.054V12.5881C88.4125 12.5753 88.2953 12.5561 88.112 12.5305C87.9331 12.5007 87.7434 12.4858 87.5431 12.4858C87.0659 12.4858 86.6397 12.5859 86.2647 12.7862C85.894 12.9822 85.6 13.255 85.3826 13.6044C85.1696 13.9496 85.063 14.3437 85.063 14.7869V21H83.5545ZM91.5222 24.6818C91.2665 24.6818 91.0385 24.6605 90.8382 24.6179C90.638 24.5795 90.4995 24.5412 90.4228 24.5028L90.8063 23.1733C91.1728 23.267 91.4966 23.3011 91.7779 23.2756C92.0591 23.25 92.3084 23.1243 92.5257 22.8984C92.7473 22.6768 92.9498 22.3168 93.133 21.8182L93.4142 21.0511L89.7836 11.1818H91.4199L94.1301 19.0057H94.2324L96.9426 11.1818H98.579L94.4114 22.4318C94.2239 22.9389 93.9917 23.3587 93.7147 23.6911C93.4377 24.0277 93.1159 24.277 92.7495 24.4389C92.3873 24.6009 91.9782 24.6818 91.5222 24.6818Z" fill="white"/>
<path d="M15.7084 3.625C12.8241 3.625 10.058 4.77076 8.01859 6.81021C5.97913 8.84967 4.83337 11.6158 4.83337 14.5H1.20837L5.90879 19.2004L5.99337 19.3696L10.875 14.5H7.25004C7.25004 9.82375 11.0321 6.04167 15.7084 6.04167C20.3846 6.04167 24.1667 9.82375 24.1667 14.5C24.1667 19.1763 20.3846 22.9583 15.7084 22.9583C13.3763 22.9583 11.2617 22.0038 9.73921 20.4692L8.02337 22.185C9.03042 23.1976 10.228 24.0008 11.547 24.5483C12.8659 25.0958 14.2803 25.3768 15.7084 25.375C18.5926 25.375 21.3587 24.2292 23.3982 22.1898C25.4376 20.1503 26.5834 17.3842 26.5834 14.5C26.5834 11.6158 25.4376 8.84967 23.3982 6.81021C21.3587 4.77076 18.5926 3.625 15.7084 3.625V3.625ZM14.5 9.66667V15.7083L19.6355 18.7533L20.5659 17.1946L16.3125 14.6692V9.66667H14.5Z" fill="white"/>
</svg>
