<svg width="65" height="65" viewBox="0 0 65 65" fill="none" xmlns="http://www.w3.org/2000/svg">
<g filter="url(#filter0_d_717_1030)">
<path d="M33.5959 14.5544C33.3052 14.2638 32.911 14.1006 32.5 14.1006C32.089 14.1006 31.6948 14.2638 31.4042 14.5544L20.5542 25.4044C20.2718 25.6967 20.1156 26.0883 20.1191 26.4947C20.1226 26.9011 20.2857 27.2898 20.573 27.5772C20.8604 27.8646 21.2492 28.0276 21.6556 28.0311C22.062 28.0347 22.4535 27.8784 22.7459 27.5961L23.2 27.142V37.3503C23.2 37.7613 23.3633 38.1556 23.654 38.4463C23.9447 38.737 24.3389 38.9003 24.75 38.9003H27.85C28.2611 38.9003 28.6553 38.737 28.946 38.4463C29.2367 38.1556 29.4 37.7613 29.4 37.3503V34.2503C29.4 33.8392 29.5633 33.4449 29.854 33.1542C30.1447 32.8636 30.5389 32.7003 30.95 32.7003H34.05C34.4611 32.7003 34.8553 32.8636 35.146 33.1542C35.4367 33.4449 35.6 33.8392 35.6 34.2503V37.3503C35.6 37.7613 35.7633 38.1556 36.054 38.4463C36.3447 38.737 36.7389 38.9003 37.15 38.9003H40.25C40.6611 38.9003 41.0553 38.737 41.346 38.4463C41.6367 38.1556 41.8 37.7613 41.8 37.3503V27.142L42.2542 27.5961C42.5465 27.8784 42.938 28.0347 43.3444 28.0311C43.7508 28.0276 44.1396 27.8646 44.427 27.5772C44.7144 27.2898 44.8774 26.9011 44.8809 26.4947C44.8844 26.0883 44.7282 25.6967 44.4459 25.4044L33.5959 14.5544Z" fill="#FF6915"/>
</g>
<defs>
<filter id="filter0_d_717_1030" x="-3" y="-3" width="71" height="71" filterUnits="userSpaceOnUse" color-interpolation-filters="sRGB">
<feFlood flood-opacity="0" result="BackgroundImageFix"/>
<feColorMatrix in="SourceAlpha" type="matrix" values="0 0 0 0 0 0 0 0 0 0 0 0 0 0 0 0 0 0 127 0" result="hardAlpha"/>
<feOffset dy="6"/>
<feGaussianBlur stdDeviation="10"/>
<feColorMatrix type="matrix" values="0 0 0 0 0.841667 0 0 0 0 0.219258 0 0 0 0 0 0 0 0 0.4 0"/>
<feBlend mode="normal" in2="BackgroundImageFix" result="effect1_dropShadow_717_1030"/>
<feBlend mode="normal" in="SourceGraphic" in2="effect1_dropShadow_717_1030" result="shape"/>
</filter>
</defs>
</svg>
