<svg width="168" height="52" viewBox="0 0 168 52" fill="none" xmlns="http://www.w3.org/2000/svg">
<path d="M41.8253 9.463C42.7433 9.463 43.5649 9.65567 44.2903 10.041C45.0269 10.4263 45.6049 10.9873 46.0243 11.724C46.4436 12.4493 46.6533 13.305 46.6533 14.291C46.6533 15.277 46.4436 16.1327 46.0243 16.858C45.6049 17.5833 45.0269 18.1443 44.2903 18.541C43.5649 18.9263 42.7433 19.119 41.8253 19.119C40.9073 19.119 40.0799 18.9263 39.3433 18.541C38.6179 18.1443 38.0456 17.5833 37.6263 16.858C37.2069 16.1327 36.9973 15.277 36.9973 14.291C36.9973 13.305 37.2069 12.4493 37.6263 11.724C38.0456 10.9873 38.6179 10.4263 39.3433 10.041C40.0799 9.65567 40.9073 9.463 41.8253 9.463ZM41.8253 11.537C41.1566 11.537 40.5899 11.775 40.1253 12.251C39.6606 12.7157 39.4283 13.3957 39.4283 14.291C39.4283 15.1863 39.6606 15.872 40.1253 16.348C40.5899 16.8127 41.1566 17.045 41.8253 17.045C42.4939 17.045 43.0606 16.8127 43.5253 16.348C43.9899 15.872 44.2223 15.1863 44.2223 14.291C44.2223 13.3957 43.9899 12.7157 43.5253 12.251C43.0606 11.775 42.4939 11.537 41.8253 11.537ZM50.7443 11.384C51.0956 10.7833 51.5603 10.313 52.1383 9.973C52.7163 9.62167 53.3623 9.446 54.0763 9.446V12.013H53.3793C51.6226 12.013 50.7443 12.829 50.7443 14.461V19H48.3473V9.582H50.7443V11.384ZM59.0919 9.463C59.8853 9.463 60.5596 9.65 61.1149 10.024C61.6816 10.398 62.0896 10.9023 62.3389 11.537V6.42H64.7189V19H62.3389V17.028C62.0896 17.6627 61.6816 18.1727 61.1149 18.558C60.5596 18.932 59.8853 19.119 59.0919 19.119C58.2986 19.119 57.5846 18.9263 56.9499 18.541C56.3153 18.1557 55.8166 17.6003 55.4539 16.875C55.1026 16.1383 54.9269 15.277 54.9269 14.291C54.9269 13.305 55.1026 12.4493 55.4539 11.724C55.8166 10.9873 56.3153 10.4263 56.9499 10.041C57.5846 9.65567 58.2986 9.463 59.0919 9.463ZM59.8399 11.554C59.0919 11.554 58.4913 11.7977 58.0379 12.285C57.5846 12.7723 57.3579 13.441 57.3579 14.291C57.3579 15.141 57.5846 15.8097 58.0379 16.297C58.4913 16.773 59.0919 17.011 59.8399 17.011C60.5653 17.011 61.1603 16.7673 61.6249 16.28C62.1009 15.7813 62.3389 15.1183 62.3389 14.291C62.3389 13.4523 62.1009 12.7893 61.6249 12.302C61.1603 11.8033 60.5653 11.554 59.8399 11.554ZM75.7482 13.934C75.7482 14.172 75.7199 14.444 75.6632 14.75H68.7612C68.7952 15.5887 69.0219 16.2063 69.4412 16.603C69.8606 16.9997 70.3819 17.198 71.0052 17.198C71.5606 17.198 72.0196 17.062 72.3822 16.79C72.7562 16.518 72.9942 16.1497 73.0962 15.685H75.6292C75.5046 16.3423 75.2382 16.9317 74.8302 17.453C74.4222 17.9743 73.8952 18.3823 73.2492 18.677C72.6146 18.9717 71.9062 19.119 71.1242 19.119C70.2062 19.119 69.3902 18.9263 68.6762 18.541C67.9622 18.1443 67.4069 17.5833 67.0102 16.858C66.6136 16.1327 66.4152 15.277 66.4152 14.291C66.4152 13.305 66.6136 12.4493 67.0102 11.724C67.4069 10.9873 67.9622 10.4263 68.6762 10.041C69.3902 9.65567 70.2062 9.463 71.1242 9.463C72.0536 9.463 72.8639 9.65567 73.5552 10.041C74.2579 10.4263 74.7962 10.959 75.1702 11.639C75.5556 12.3077 75.7482 13.0727 75.7482 13.934ZM73.3342 13.696C73.3682 12.9253 73.1642 12.3417 72.7222 11.945C72.2916 11.5483 71.7589 11.35 71.1242 11.35C70.4782 11.35 69.9342 11.5483 69.4922 11.945C69.0502 12.3417 68.8066 12.9253 68.7612 13.696H73.3342ZM79.8468 11.384C80.1981 10.7833 80.6628 10.313 81.2408 9.973C81.8188 9.62167 82.4648 9.446 83.1788 9.446V12.013H82.4818C80.7251 12.013 79.8468 12.829 79.8468 14.461V19H77.4498V9.582H79.8468V11.384ZM87.7525 9.463C88.8971 9.463 89.8151 9.752 90.5065 10.33C91.1978 10.908 91.6285 11.6787 91.7985 12.642H89.5545C89.4638 12.1887 89.2598 11.826 88.9425 11.554C88.6251 11.282 88.2115 11.146 87.7015 11.146C87.2935 11.146 86.9761 11.2423 86.7495 11.435C86.5228 11.6277 86.4095 11.8883 86.4095 12.217C86.4095 12.4777 86.5001 12.6873 86.6815 12.846C86.8628 13.0047 87.0895 13.1293 87.3615 13.22C87.6335 13.3107 88.0245 13.4183 88.5345 13.543C89.2485 13.7017 89.8265 13.8717 90.2685 14.053C90.7218 14.223 91.1071 14.5007 91.4245 14.886C91.7531 15.26 91.9175 15.77 91.9175 16.416C91.9175 17.2207 91.6001 17.8723 90.9655 18.371C90.3421 18.8697 89.4978 19.119 88.4325 19.119C87.2085 19.119 86.2281 18.847 85.4915 18.303C84.7548 17.7477 84.3071 16.96 84.1485 15.94H86.4435C86.5001 16.4047 86.7041 16.773 87.0555 17.045C87.4068 17.3057 87.8658 17.436 88.4325 17.436C88.8405 17.436 89.1521 17.3397 89.3675 17.147C89.5828 16.943 89.6905 16.6823 89.6905 16.365C89.6905 16.093 89.5941 15.872 89.4015 15.702C89.2201 15.532 88.9878 15.4017 88.7045 15.311C88.4325 15.2203 88.0415 15.1127 87.5315 14.988C86.8288 14.8293 86.2565 14.6707 85.8145 14.512C85.3838 14.342 85.0098 14.0757 84.6925 13.713C84.3865 13.3503 84.2335 12.8517 84.2335 12.217C84.2335 11.401 84.5451 10.738 85.1685 10.228C85.7918 9.718 86.6531 9.463 87.7525 9.463Z" fill="white"/>
<line x1="36" y1="51.85" x2="168" y2="51.85" stroke="#F4F4F8" stroke-width="0.3"/>
<path d="M3.25 6.68753C3.03451 6.68753 2.82785 6.77314 2.67548 6.92551C2.5231 7.07788 2.4375 7.28455 2.4375 7.50003C2.4375 7.71552 2.5231 7.92218 2.67548 8.07456C2.82785 8.22693 3.03451 8.31253 3.25 8.31253H5.05375L7.18575 16.8438C7.36694 17.5669 8.0145 18.0625 8.75956 18.0625H18.8914C19.6251 18.0625 20.2483 17.575 20.4409 16.8682L22.5469 9.12503H20.8455L18.8906 16.4375H8.75875L6.62756 7.90628C6.53953 7.55628 6.33659 7.24595 6.05124 7.02498C5.76589 6.80401 5.41465 6.68518 5.05375 6.68753H3.25ZM17.875 18.0625C16.5384 18.0625 15.4375 19.1635 15.4375 20.5C15.4375 21.8366 16.5384 22.9375 17.875 22.9375C19.2116 22.9375 20.3125 21.8366 20.3125 20.5C20.3125 19.1635 19.2116 18.0625 17.875 18.0625ZM10.5625 18.0625C9.22594 18.0625 8.125 19.1635 8.125 20.5C8.125 21.8366 9.22594 22.9375 10.5625 22.9375C11.8991 22.9375 13 21.8366 13 20.5C13 19.1635 11.8991 18.0625 10.5625 18.0625ZM13 6.68753V10.75H10.5625L13.8125 14L17.0625 10.75H14.625V6.68753H13ZM10.5625 19.6875C11.0208 19.6875 11.375 20.0418 11.375 20.5C11.375 20.9583 11.0208 21.3125 10.5625 21.3125C10.1042 21.3125 9.75 20.9583 9.75 20.5C9.75 20.0418 10.1042 19.6875 10.5625 19.6875ZM17.875 19.6875C18.3333 19.6875 18.6875 20.0418 18.6875 20.5C18.6875 20.9583 18.3333 21.3125 17.875 21.3125C17.4167 21.3125 17.0625 20.9583 17.0625 20.5C17.0625 20.0418 17.4167 19.6875 17.875 19.6875Z" fill="white"/>
</svg>
