<svg width="168" height="52" viewBox="0 0 168 52" fill="none" xmlns="http://www.w3.org/2000/svg">
<path d="M39.5241 14.546V19H37.1271V6.998H41.4961C42.9127 6.998 43.9781 7.338 44.6921 8.018C45.4174 8.698 45.7801 9.62167 45.7801 10.789C45.7801 11.9337 45.4061 12.846 44.6581 13.526C43.9214 14.206 42.8674 14.546 41.4961 14.546H39.5241ZM41.2411 12.625C42.6464 12.625 43.3491 12.013 43.3491 10.789C43.3491 10.1883 43.1847 9.72933 42.8561 9.412C42.5274 9.09467 41.9891 8.936 41.2411 8.936H39.5241V12.625H41.2411ZM49.734 11.384C50.0854 10.7833 50.55 10.313 51.128 9.973C51.706 9.62167 52.352 9.446 53.066 9.446V12.013H52.369C50.6124 12.013 49.734 12.829 49.734 14.461V19H47.337V9.582H49.734V11.384ZM58.7447 9.463C59.6627 9.463 60.4844 9.65567 61.2097 10.041C61.9464 10.4263 62.5244 10.9873 62.9437 11.724C63.363 12.4493 63.5727 13.305 63.5727 14.291C63.5727 15.277 63.363 16.1327 62.9437 16.858C62.5244 17.5833 61.9464 18.1443 61.2097 18.541C60.4844 18.9263 59.6627 19.119 58.7447 19.119C57.8267 19.119 56.9994 18.9263 56.2627 18.541C55.5374 18.1443 54.965 17.5833 54.5457 16.858C54.1264 16.1327 53.9167 15.277 53.9167 14.291C53.9167 13.305 54.1264 12.4493 54.5457 11.724C54.965 10.9873 55.5374 10.4263 56.2627 10.041C56.9994 9.65567 57.8267 9.463 58.7447 9.463ZM58.7447 11.537C58.076 11.537 57.5094 11.775 57.0447 12.251C56.58 12.7157 56.3477 13.3957 56.3477 14.291C56.3477 15.1863 56.58 15.872 57.0447 16.348C57.5094 16.8127 58.076 17.045 58.7447 17.045C59.4134 17.045 59.98 16.8127 60.4447 16.348C60.9094 15.872 61.1417 15.1863 61.1417 14.291C61.1417 13.3957 60.9094 12.7157 60.4447 12.251C59.98 11.775 59.4134 11.537 58.7447 11.537ZM69.9247 7.95C69.222 7.90467 68.729 8.00667 68.4457 8.256C68.1624 8.50533 68.0207 8.94167 68.0207 9.565V9.582H69.9247V11.605H68.0207V19H65.6237V11.605H64.4167V9.582H65.6237V9.361C65.6237 8.239 65.941 7.37767 66.5757 6.777C67.2217 6.165 68.1737 5.859 69.4317 5.859C69.647 5.859 69.8114 5.86467 69.9247 5.876V7.95ZM71.0875 6.879C71.0875 6.49367 71.2235 6.182 71.4955 5.944C71.7675 5.69467 72.1245 5.57 72.5665 5.57C73.0085 5.57 73.3655 5.69467 73.6375 5.944C73.9095 6.182 74.0455 6.49367 74.0455 6.879C74.0455 7.253 73.9095 7.56467 73.6375 7.814C73.3655 8.052 73.0085 8.171 72.5665 8.171C72.1245 8.171 71.7675 8.052 71.4955 7.814C71.2235 7.56467 71.0875 7.253 71.0875 6.879ZM73.7565 9.582V19H71.3595V9.582H73.7565ZM78.3219 6.42V19H75.9249V6.42H78.3219ZM89.3473 13.934C89.3473 14.172 89.319 14.444 89.2623 14.75H82.3603C82.3943 15.5887 82.621 16.2063 83.0403 16.603C83.4597 16.9997 83.981 17.198 84.6043 17.198C85.1597 17.198 85.6187 17.062 85.9813 16.79C86.3553 16.518 86.5933 16.1497 86.6953 15.685H89.2283C89.1037 16.3423 88.8373 16.9317 88.4293 17.453C88.0213 17.9743 87.4943 18.3823 86.8483 18.677C86.2137 18.9717 85.5053 19.119 84.7233 19.119C83.8053 19.119 82.9893 18.9263 82.2753 18.541C81.5613 18.1443 81.006 17.5833 80.6093 16.858C80.2127 16.1327 80.0143 15.277 80.0143 14.291C80.0143 13.305 80.2127 12.4493 80.6093 11.724C81.006 10.9873 81.5613 10.4263 82.2753 10.041C82.9893 9.65567 83.8053 9.463 84.7233 9.463C85.6527 9.463 86.463 9.65567 87.1543 10.041C87.857 10.4263 88.3953 10.959 88.7693 11.639C89.1547 12.3077 89.3473 13.0727 89.3473 13.934ZM86.9333 13.696C86.9673 12.9253 86.7633 12.3417 86.3213 11.945C85.8907 11.5483 85.358 11.35 84.7233 11.35C84.0773 11.35 83.5333 11.5483 83.0913 11.945C82.6493 12.3417 82.4057 12.9253 82.3603 13.696H86.9333Z" fill="white"/>
<line x1="36" y1="51.85" x2="168" y2="51.85" stroke="#F4F4F8" stroke-width="0.3"/>
<path fill-rule="evenodd" clip-rule="evenodd" d="M16 10C16 11.0609 15.5786 12.0783 14.8284 12.8284C14.0783 13.5786 13.0609 14 12 14C10.9391 14 9.92172 13.5786 9.17157 12.8284C8.42143 12.0783 8 11.0609 8 10C8 8.93913 8.42143 7.92172 9.17157 7.17157C9.92172 6.42143 10.9391 6 12 6C13.0609 6 14.0783 6.42143 14.8284 7.17157C15.5786 7.92172 16 8.93913 16 10V10ZM14 10C14 10.5304 13.7893 11.0391 13.4142 11.4142C13.0391 11.7893 12.5304 12 12 12C11.4696 12 10.9609 11.7893 10.5858 11.4142C10.2107 11.0391 10 10.5304 10 10C10 9.46957 10.2107 8.96086 10.5858 8.58579C10.9609 8.21071 11.4696 8 12 8C12.5304 8 13.0391 8.21071 13.4142 8.58579C13.7893 8.96086 14 9.46957 14 10V10Z" fill="white"/>
<path fill-rule="evenodd" clip-rule="evenodd" d="M12 2C5.925 2 1 6.925 1 13C1 19.075 5.925 24 12 24C18.075 24 23 19.075 23 13C23 6.925 18.075 2 12 2ZM3 13C3 15.09 3.713 17.014 4.908 18.542C5.74723 17.4399 6.8299 16.5467 8.07143 15.9323C9.31297 15.3179 10.6797 14.9988 12.065 15C13.4323 14.9987 14.7819 15.3095 16.0109 15.9088C17.2399 16.508 18.316 17.3799 19.157 18.458C20.0234 17.3216 20.6068 15.9952 20.8589 14.5886C21.111 13.182 21.0244 11.7355 20.6065 10.369C20.1886 9.00243 19.4512 7.75505 18.4555 6.73004C17.4598 5.70503 16.2343 4.93186 14.8804 4.47451C13.5265 4.01716 12.0832 3.88877 10.6699 4.09997C9.25652 4.31117 7.91379 4.85589 6.75277 5.68905C5.59175 6.52222 4.64581 7.61987 3.99323 8.8912C3.34065 10.1625 3.00018 11.571 3 13V13ZM12 22C9.93395 22.0031 7.93027 21.2923 6.328 19.988C6.97293 19.0647 7.83134 18.3109 8.83019 17.7907C9.82905 17.2705 10.9388 16.9992 12.065 17C13.1772 16.9991 14.2735 17.2636 15.2629 17.7714C16.2524 18.2793 17.1064 19.0159 17.754 19.92C16.1393 21.2667 14.1026 22.0029 12 22V22Z" fill="white"/>
</svg>
